<?xml version="1.0" standalone="no"?>
<!DOCTYPE svg PUBLIC "-//W3C//DTD SVG 20010904//EN"
 "http://www.w3.org/TR/2001/REC-SVG-20010904/DTD/svg10.dtd">
<svg version="1.0" xmlns="http://www.w3.org/2000/svg"
 width="640.000000pt" height="640.000000pt" viewBox="0 0 640.000000 640.000000"
 preserveAspectRatio="xMidYMid meet">
<metadata>
Created by potrace 1.14, written by Peter Selinger 2001-2017
</metadata>
<g transform="translate(0.000000,640.000000) scale(0.100000,-0.100000)"
fill="#000000" stroke="none">
<path d="M0 6121 l0 -280 30 -50 c17 -28 44 -75 61 -103 18 -29 68 -116 111
-193 85 -149 189 -325 273 -465 29 -47 54 -92 57 -100 3 -11 9 -9 24 10 10 13
36 41 56 61 21 20 38 46 38 58 0 13 6 21 17 21 9 0 43 18 74 40 32 22 60 40
64 40 4 0 19 8 33 18 15 11 42 24 61 31 19 6 48 27 65 46 40 44 91 65 162 65
52 0 59 3 88 35 34 37 76 47 76 19 0 -13 7 -15 33 -10 17 4 41 8 52 8 11 1 25
8 31 16 8 11 18 12 50 3 75 -21 119 -15 160 23 24 22 51 36 78 40 23 3 62 11
88 18 43 11 50 10 85 -13 48 -30 113 -29 113 2 0 27 37 25 81 -5 39 -26 77
-35 98 -22 8 5 16 4 20 -2 3 -6 28 -13 54 -16 36 -4 49 -2 53 9 7 16 34 9 34
-10 0 -7 10 -15 22 -18 16 -5 19 -9 10 -19 -6 -8 -7 -19 -3 -27 12 -19 51 -4
51 20 0 18 4 20 33 13 49 -12 82 -10 80 3 -3 14 94 7 113 -8 6 -5 35 -11 65
-14 30 -3 69 -7 87 -9 17 -3 32 -1 32 2 0 12 48 30 57 21 11 -11 84 27 133 68
19 17 49 37 67 46 17 9 37 23 45 30 7 8 54 41 103 73 50 33 113 76 140 95 28
20 85 59 128 88 42 29 82 62 88 72 5 10 18 19 28 19 10 0 25 7 32 17 8 9 28
22 44 30 17 7 59 36 95 63 151 113 354 252 407 278 46 21 158 109 167 130 4 9
-433 12 -2169 12 l-2175 0 0 -279z m2553 -532 c-6 -6 -17 -8 -24 -3 -9 5 -8 9
7 14 23 9 31 3 17 -11z m-633 -69 c0 -5 -4 -10 -9 -10 -6 0 -13 5 -16 10 -3 6
1 10 9 10 9 0 16 -4 16 -10z m-140 -10 c0 -5 -4 -10 -9 -10 -6 0 -13 5 -16 10
-3 6 1 10 9 10 9 0 16 -4 16 -10z m1020 -100 c0 -5 -2 -10 -4 -10 -3 0 -8 5
-11 10 -3 6 -1 10 4 10 6 0 11 -4 11 -10z m-2160 -180 c0 -5 -4 -10 -10 -10
-5 0 -10 5 -10 10 0 6 5 10 10 10 6 0 10 -4 10 -10z m90 -58 c0 -11 -30 -37
-52 -45 -27 -10 -21 9 10 32 29 22 42 26 42 13z"/>
<path d="M4455 6375 c-22 -13 -50 -36 -62 -50 -12 -14 -25 -25 -29 -25 -8 0
-112 -77 -129 -94 -22 -24 -164 -126 -230 -166 -38 -24 -104 -66 -145 -94 -41
-28 -92 -60 -113 -71 -22 -11 -44 -27 -50 -36 -7 -8 -20 -18 -30 -22 -19 -7
-158 -100 -227 -152 -25 -19 -81 -59 -125 -89 -44 -31 -102 -74 -130 -96 -27
-22 -65 -50 -82 -62 -40 -28 -41 -43 -6 -60 14 -7 28 -18 30 -24 5 -16 -73
-27 -98 -13 -24 12 -101 -4 -118 -25 -16 -20 52 -78 86 -74 23 2 29 9 34 38
l5 35 8 -38 c5 -20 15 -41 23 -46 11 -6 12 -10 4 -15 -16 -10 -14 -26 4 -26
14 0 19 12 16 33 -3 18 20 4 35 -22 10 -17 20 -28 24 -26 3 2 12 -1 20 -6 13
-8 13 -10 1 -18 -13 -9 5 -24 88 -76 9 -5 19 -14 23 -20 4 -5 10 -6 14 -2 5 4
-9 24 -29 43 -20 20 -37 40 -37 45 0 15 19 10 40 -11 11 -11 22 -20 25 -20 3
0 11 -5 18 -10 7 -6 24 -19 40 -31 15 -11 27 -29 27 -39 0 -28 15 -32 39 -11
21 19 28 41 12 41 -8 0 -21 29 -25 55 -1 6 -7 20 -14 33 -7 12 -9 22 -4 22 5
0 19 -20 32 -45 13 -25 29 -50 37 -56 7 -6 13 -20 13 -30 0 -26 13 -24 120 19
52 22 126 49 164 62 37 12 80 29 95 36 14 8 31 14 37 14 9 0 102 35 159 60 11
4 45 18 77 31 64 25 69 48 10 47 -20 0 -83 3 -139 6 -56 4 -121 2 -145 -3 -27
-6 -45 -6 -48 0 -4 5 -49 12 -101 15 -52 4 -105 7 -119 9 -14 1 -55 3 -92 3
-38 1 -68 6 -68 11 0 8 326 29 380 24 100 -9 436 5 463 19 10 5 17 14 15 21
-4 22 13 57 27 57 8 0 22 11 31 25 9 14 22 25 28 25 7 0 18 12 25 28 8 15 17
35 22 44 5 10 9 23 9 29 0 6 10 19 22 28 18 15 21 27 19 82 -1 35 -3 75 -4 88
-3 37 20 37 28 0 4 -18 15 -40 24 -49 23 -25 66 -33 80 -16 7 8 23 17 36 20
14 4 25 11 25 16 0 18 56 38 116 42 68 5 84 12 84 36 1 13 6 10 24 -11 18 -23
28 -27 49 -22 20 5 29 2 39 -14 7 -12 20 -21 29 -21 8 0 34 -16 56 -35 25 -21
52 -35 68 -35 23 0 26 -2 15 -15 -10 -12 -9 -15 6 -16 18 0 18 -1 1 -8 -30
-11 4 -33 40 -26 28 5 28 5 3 -5 -14 -6 -33 -9 -42 -6 -10 2 -18 0 -18 -5 0
-5 8 -9 18 -9 21 0 192 58 272 92 l55 23 -12 55 c-6 30 -12 72 -12 92 -1 20
-5 58 -10 85 -6 26 -17 95 -26 153 -15 98 -42 239 -51 268 -3 9 -97 12 -431
11 l-428 -1 -40 -23z m15 -515 c0 -5 -4 -10 -10 -10 -5 0 -10 5 -10 10 0 6 5
10 10 10 6 0 10 -4 10 -10z m147 -96 c-3 -3 -12 -4 -19 -1 -8 3 -5 6 6 6 11 1
17 -2 13 -5z m529 -29 c-21 -16 -32 -13 -21 4 3 6 14 11 23 11 15 -1 15 -2 -2
-15z m-1892 -470 c10 -8 24 -12 29 -8 7 4 8 -1 4 -12 -5 -12 1 -25 18 -41 14
-13 20 -24 14 -24 -10 0 -10 -3 -1 -12 20 -20 13 -28 -13 -16 -14 6 -25 17
-25 23 0 7 -7 18 -15 25 -12 10 -45 66 -45 77 0 7 16 2 34 -12z m121 -95 c3
-5 2 -10 -4 -10 -5 0 -13 5 -16 10 -3 6 -2 10 4 10 5 0 13 -4 16 -10z m-28
-45 c0 -8 -4 -15 -9 -15 -10 0 -11 14 -1 23 9 10 10 9 10 -8z"/>
<path d="M5400 6369 c0 -17 11 -104 26 -193 14 -88 27 -177 30 -196 5 -41 35
-209 40 -228 3 -10 10 -10 36 1 44 18 44 6 -22 437 -16 107 -30 198 -30 203 0
4 -18 7 -40 7 -38 0 -40 -1 -40 -31z"/>
<path d="M5524 6374 c7 -26 19 -109 36 -249 5 -44 14 -116 20 -160 6 -44 14
-101 17 -127 5 -40 9 -48 27 -48 48 1 57 23 43 100 -6 29 -42 295 -63 463 l-6
47 -40 0 c-38 0 -40 -1 -34 -26z"/>
<path d="M5641 6368 c5 -18 9 -50 9 -70 0 -21 6 -77 14 -125 8 -49 19 -128 26
-178 21 -168 20 -165 41 -165 11 0 22 7 25 15 4 8 14 15 24 15 15 0 16 6 9 49
-4 27 -10 87 -14 133 -6 92 -14 148 -24 163 -3 6 -6 24 -7 40 -1 88 -5 106
-23 122 -11 9 -18 20 -15 25 3 4 -13 8 -35 8 l-40 0 10 -32z m85 -125 c-10
-10 -19 5 -10 18 6 11 8 11 12 0 2 -7 1 -15 -2 -18z"/>
<path d="M5865 6323 c4 -43 11 -96 17 -118 5 -22 12 -74 15 -115 7 -116 17
-160 35 -160 5 0 6 -4 3 -10 -3 -5 -2 -10 4 -10 15 0 198 68 240 88 20 11 77
32 126 48 l90 29 3 163 2 162 -271 0 -271 0 7 -77z"/>
<path d="M5833 6115 c0 -22 2 -30 4 -17 2 12 2 30 0 40 -3 9 -5 -1 -4 -23z"/>
<path d="M5838 6020 c-6 -20 11 -123 23 -135 6 -6 7 11 3 50 -8 71 -19 106
-26 85z"/>
<path d="M6360 5970 c-11 -11 -26 -17 -36 -13 -8 3 -37 -3 -62 -14 -26 -11
-63 -26 -82 -32 -126 -44 -179 -65 -207 -82 -32 -20 -32 -20 -27 -87 3 -37 7
-80 10 -97 3 -16 8 -48 11 -70 7 -66 43 -173 59 -179 20 -8 86 -8 163 0 58 7
62 9 68 35 7 35 15 37 28 7 8 -20 18 -23 60 -23 l50 0 3 288 c1 189 -1 287 -8
287 -5 0 -19 -9 -30 -20z m-107 -327 c5 -52 3 -73 -7 -62 -9 10 -17 119 -8
119 5 0 12 -26 15 -57z"/>
<path d="M5875 5754 c2 -10 6 -66 9 -122 3 -57 10 -110 17 -118 6 -7 9 -34 7
-59 -2 -29 1 -46 9 -49 20 -8 25 12 14 47 -6 17 -11 61 -12 96 -3 72 -26 201
-39 215 -5 5 -7 1 -5 -10z"/>
<path d="M5763 5743 c-40 -8 -41 -22 -17 -183 13 -85 23 -158 24 -162 0 -12
22 -10 54 5 l27 12 -6 85 c-4 47 -13 111 -21 144 -9 32 -13 61 -10 63 7 7 -12
43 -22 42 -4 -1 -17 -4 -29 -6z"/>
<path d="M5641 5703 c-22 -18 -22 -19 -7 -118 9 -55 18 -121 21 -147 6 -49 22
-63 58 -52 17 5 19 12 13 58 -3 28 -12 96 -19 151 -16 130 -23 142 -66 108z"/>
<path d="M5531 5661 c-25 -19 -25 -11 0 -171 18 -112 17 -110 48 -110 45 0 50
15 35 108 -12 79 -22 152 -23 180 -1 18 -32 14 -60 -7z"/>
<path d="M0 4698 c0 -865 2 -977 15 -972 8 4 15 12 15 20 0 8 7 14 15 14 13 0
14 -4 5 -20 -6 -12 -8 -30 -5 -40 4 -12 2 -20 -5 -20 -6 0 -8 -5 -4 -11 5 -8
9 -8 14 1 12 20 27 3 32 -33 4 -38 -14 -62 -55 -72 -26 -7 -27 -9 -27 -81 0
-74 5 -85 28 -62 10 10 15 10 22 -2 12 -19 13 -37 1 -44 -5 -3 -7 -15 -4 -26
3 -11 1 -20 -4 -20 -13 0 -43 -55 -43 -79 0 -12 4 -21 9 -21 5 0 18 -3 28 -7
16 -6 16 -5 4 10 -11 14 -11 20 -1 32 7 8 19 15 26 15 8 0 14 10 14 23 0 45
100 113 112 76 3 -8 18 -9 46 -4 32 5 42 11 40 23 -2 11 4 17 17 17 11 0 27 4
35 10 8 5 29 10 45 12 50 3 89 21 77 36 -8 9 -6 16 9 25 11 7 17 17 14 22 -3
5 4 14 15 20 11 6 20 17 20 24 0 9 8 12 25 8 26 -5 33 -18 13 -24 -17 -6 -17
-128 0 -128 17 0 -14 -31 -50 -49 -14 -7 -34 -30 -45 -50 -10 -20 -19 -38 -20
-40 -2 -2 -9 1 -16 8 -11 9 -17 8 -27 -4 -7 -8 -18 -15 -26 -15 -7 0 -18 -9
-25 -21 -7 -14 -17 -19 -31 -16 -20 6 -148 -66 -148 -82 0 -3 -17 -14 -37 -23
-46 -19 -93 -61 -93 -83 0 -8 -7 -15 -15 -15 -12 0 -15 -16 -15 -85 0 -61 4
-85 13 -85 6 -1 30 -9 52 -20 49 -23 65 -25 65 -5 0 8 -7 15 -16 15 -8 0 -12
5 -9 10 5 8 11 7 21 -1 8 -6 17 -9 21 -6 3 4 22 -2 42 -13 20 -11 47 -24 61
-30 30 -12 57 -30 81 -52 16 -15 200 -108 214 -108 3 0 16 -9 28 -21 12 -11
39 -29 59 -40 21 -11 38 -26 38 -34 0 -8 4 -15 9 -15 5 0 12 -11 15 -25 4 -14
20 -38 37 -55 18 -17 28 -34 24 -41 -4 -6 -4 -14 1 -18 5 -3 15 -18 21 -33 12
-26 11 -28 -13 -28 -19 0 -24 -4 -21 -17 3 -10 11 -40 17 -66 7 -27 19 -51 26
-54 7 -2 10 -11 8 -18 -7 -16 34 -75 52 -75 6 0 15 -7 18 -16 9 -23 7 -72 -2
-78 -11 -6 -2 -76 9 -76 5 0 9 -17 9 -37 0 -21 7 -60 15 -87 8 -27 15 -73 15
-102 0 -29 5 -75 11 -102 7 -28 9 -58 5 -68 -8 -18 -9 -31 -20 -158 -5 -69
-19 -99 -52 -117 -13 -7 -24 -19 -24 -27 0 -19 -64 -82 -84 -82 -17 0 -144
-66 -169 -88 -16 -14 -16 -16 3 -29 21 -15 27 -48 9 -58 -7 -5 -5 -14 5 -30
14 -21 13 -24 -8 -44 -27 -26 -68 -27 -92 -3 -10 9 -18 15 -18 13 -1 -3 -12
-2 -25 2 -15 3 -22 11 -18 20 3 7 -4 24 -14 38 -10 13 -19 26 -19 29 0 6 54
35 84 44 15 5 17 12 12 41 -6 29 -4 34 9 29 8 -4 21 -1 29 5 7 6 15 8 19 5 3
-3 13 6 22 20 10 14 24 26 31 26 8 0 17 7 20 15 4 8 10 12 15 9 5 -3 9 6 9 19
0 15 10 31 25 41 19 12 25 25 25 51 0 20 4 44 10 55 5 11 14 29 20 40 5 11 10
35 10 54 0 19 5 38 10 41 6 4 8 10 6 14 -3 4 1 30 8 58 10 37 11 54 3 62 -14
14 -47 14 -47 1 0 -5 -5 -10 -11 -10 -6 0 -9 8 -7 18 2 9 10 17 18 17 17 0 26
43 12 57 -6 6 -22 -7 -43 -34 -18 -24 -48 -59 -66 -78 -24 -25 -31 -41 -26
-58 7 -31 -15 -82 -37 -82 -10 0 -25 -6 -32 -13 -7 -8 -19 -12 -27 -9 -9 3
-11 0 -6 -8 5 -8 0 -11 -15 -8 -18 2 -23 10 -25 43 -1 22 4 52 11 67 8 15 13
37 12 50 -2 23 32 95 60 130 8 10 12 24 9 32 -4 9 -2 18 3 21 6 4 10 17 10 29
0 13 8 34 19 47 10 13 24 56 31 94 8 39 20 77 27 87 9 10 11 18 4 22 -5 4 -13
28 -16 54 -3 26 -12 70 -20 97 -19 69 -27 145 -15 145 13 0 42 58 35 70 -9 15
-25 12 -25 -5 0 -20 -26 -19 -34 1 -8 20 1 34 20 34 24 0 15 25 -21 59 -27 24
-41 30 -60 25 -18 -4 -27 -2 -31 10 -3 9 -14 16 -23 16 -14 0 -14 2 -1 10 11
7 7 10 -17 10 -18 0 -33 5 -33 10 0 6 -6 10 -14 10 -8 0 -33 16 -56 35 -23 19
-45 35 -50 35 -4 0 -19 12 -33 26 -15 14 -46 30 -69 36 -24 5 -56 21 -73 36
-33 30 -91 72 -100 72 -3 0 -5 -639 -5 -1420 l0 -1420 3043 1 3042 0 -65 32
c-36 18 -74 40 -84 50 -11 9 -34 21 -50 26 -67 21 -121 43 -127 52 -3 6 -23
12 -43 13 -20 2 -44 10 -54 18 -21 19 -96 38 -122 31 -11 -3 -20 -1 -20 4 0 6
-11 8 -25 5 -14 -2 -33 2 -42 9 -11 10 -61 16 -167 20 -83 3 -141 6 -130 7 12
1 24 9 28 17 3 8 13 15 23 15 39 0 -6 19 -67 29 -60 9 -293 24 -350 22 -16 -1
-21 2 -14 9 6 6 85 11 197 12 103 1 187 5 187 10 0 9 -75 58 -89 58 -5 0 -12
7 -15 16 -3 8 -11 12 -16 9 -6 -4 -16 -2 -23 3 -13 11 -189 47 -274 56 -66 8
-80 13 -86 37 -3 11 -14 19 -26 19 -24 0 -28 -18 -6 -26 8 -4 15 -10 15 -15 0
-12 -24 -11 -54 2 l-24 12 19 21 20 21 -32 29 c-25 22 -38 27 -64 23 -24 -4
-34 -1 -43 14 -8 13 -24 19 -46 19 -19 0 -38 5 -41 10 -3 6 -16 10 -28 10 -13
0 -17 4 -11 9 5 6 27 6 55 1 106 -20 203 -6 192 27 -2 6 5 17 16 23 12 6 21
17 21 25 0 15 -10 19 -45 16 -16 -2 -17 0 -5 8 13 9 13 11 -1 16 -8 3 -26 4
-39 3 -19 -2 -26 2 -28 20 -2 12 -7 20 -12 17 -5 -3 -11 -1 -15 5 -3 5 5 14
18 19 14 6 28 14 31 20 9 14 -29 65 -60 81 -13 7 -26 21 -29 31 -3 9 -34 34
-69 55 -76 46 -96 82 -62 112 24 20 96 37 96 21 0 -5 20 -9 44 -9 41 0 43 1
38 26 -4 25 -3 26 21 20 26 -6 27 -5 23 36 -9 113 -29 173 -49 146 -7 -10 -8
-9 -4 3 3 9 0 22 -6 28 -6 6 -16 26 -22 43 -7 22 -16 33 -28 32 -14 -2 -18 5
-16 25 1 14 1 33 0 41 -1 15 -44 40 -67 40 -6 0 -23 9 -38 21 -88 69 142 55
304 -19 44 -20 147 -98 163 -123 6 -10 17 -19 24 -19 7 0 13 -4 13 -9 0 -5 11
-23 25 -39 15 -19 21 -33 15 -37 -15 -9 -12 -25 5 -25 9 0 18 -7 21 -15 5 -11
11 -8 30 12 13 14 25 30 25 34 4 29 9 74 15 147 5 67 11 88 29 108 14 15 29
22 39 18 11 -4 16 -1 16 11 0 11 -6 15 -19 10 -14 -4 -20 0 -23 19 -3 14 0 27
6 29 8 3 8 8 -1 18 -6 8 -13 25 -15 39 -2 18 -10 26 -28 28 -20 2 -22 1 -10
-7 18 -13 21 -12 -57 -15 -44 -1 -68 -7 -82 -20 -13 -12 -30 -17 -45 -14 -23
5 -25 2 -23 -26 1 -22 10 -34 31 -46 38 -19 73 -79 54 -91 -30 -19 -118 17
-102 42 3 5 -12 25 -32 45 -30 28 -35 37 -23 45 11 7 9 9 -8 9 -12 0 -25 5
-29 12 -5 7 -2 9 8 5 18 -6 38 10 38 31 0 8 -11 24 -24 36 -14 11 -26 32 -28
46 -5 35 -34 86 -52 93 -10 4 -13 13 -9 22 4 11 1 16 -8 15 -36 -6 -75 22 -62
43 4 7 6 23 5 37 l-3 25 13 -24 c28 -53 162 -87 204 -52 28 22 21 65 -14 98
-29 27 -58 29 -126 8 -57 -17 -69 -19 -61 -6 3 5 1 12 -4 15 -5 3 -7 15 -4 26
3 11 1 20 -5 20 -5 0 -17 18 -26 40 -9 22 -20 40 -24 40 -5 0 -14 11 -20 24
-16 35 -100 45 -206 23 -91 -20 -101 -26 -110 -70 l-7 -32 -16 35 c-18 41 -35
190 -22 206 5 6 4 26 -2 46 -5 20 -8 73 -6 117 3 55 0 80 -7 78 -6 -2 -13 -14
-16 -26 -3 -12 -9 -22 -15 -21 -11 0 -12 10 -14 78 -1 31 -5 42 -17 42 -8 0
-12 5 -9 10 9 15 -24 229 -47 307 -12 42 6 105 28 96 10 -4 14 3 14 26 0 17
-4 39 -9 49 -38 74 -42 90 -39 147 l3 60 28 -52 c15 -29 27 -59 27 -66 0 -13
28 -77 34 -77 1 0 1 14 -2 30 -2 17 -8 30 -13 30 -5 0 -6 20 -2 45 5 38 2 50
-21 79 -27 36 -32 56 -17 72 10 11 -3 119 -17 137 -5 7 -9 27 -7 45 1 17 -2
32 -7 32 -4 0 -8 5 -8 12 0 6 -7 20 -16 29 -9 10 -18 29 -19 41 -1 13 -3 27
-4 32 0 5 -7 3 -15 -3 -12 -10 -12 -16 -1 -39 40 -80 53 -228 19 -215 -8 3
-14 18 -14 33 0 16 -7 30 -16 34 -8 3 -13 10 -9 15 3 6 -2 27 -11 48 -9 21
-18 57 -20 81 -2 23 -12 54 -23 68 -11 14 -23 41 -27 60 -3 19 -10 34 -14 34
-4 0 -15 18 -25 40 -10 22 -22 40 -27 40 -4 0 -8 12 -8 28 -1 29 -49 122 -120
227 -44 66 -44 67 -52 40 -4 -16 -11 -31 -17 -34 -5 -3 -13 -21 -18 -40 l-9
-35 -22 38 c-12 20 -22 44 -22 52 0 23 -24 11 -28 -13 -6 -43 -62 -68 -62 -28
0 8 -7 18 -16 23 -9 5 -17 23 -18 40 0 16 -4 28 -7 26 -4 -2 -9 7 -11 21 -5
22 -2 25 24 25 23 0 29 4 26 18 -2 10 -11 16 -22 14 -15 -3 -17 1 -11 30 9 41
11 44 29 29 14 -12 50 -79 51 -95 0 -5 6 -11 14 -14 11 -4 13 4 7 38 -4 23
-13 55 -21 71 -8 15 -15 35 -15 43 0 8 -11 32 -25 52 -14 20 -25 45 -25 54 0
10 -19 42 -42 70 -24 29 -52 67 -63 85 -12 19 -33 43 -48 55 -15 12 -27 29
-27 38 0 20 -28 47 -93 90 -71 48 -120 66 -207 79 -19 3 -49 16 -66 29 -17 13
-42 24 -55 24 -13 0 -44 10 -69 22 -25 11 -51 24 -59 27 -7 4 -13 11 -11 15 9
35 -88 12 -107 -25 -7 -13 -20 -24 -30 -24 -11 0 -19 -9 -21 -22 -2 -13 -6
-23 -10 -24 -4 0 -20 -2 -37 -4 -37 -4 -57 -9 -71 -17 -6 -4 -18 2 -27 13 -9
10 -29 19 -44 19 -31 1 -63 21 -63 39 0 6 -7 11 -15 11 -11 0 -15 8 -13 26 2
22 -2 27 -22 30 -14 3 -29 10 -35 17 -33 42 -87 69 -147 74 -35 3 -68 10 -74
15 -6 4 -18 6 -27 2 -23 -8 -31 14 -13 41 9 13 12 26 7 29 -5 3 -12 -1 -15 -9
-5 -14 -10 -14 -43 0 -20 9 -44 13 -52 9 -9 -4 -20 -8 -26 -9 -20 -3 -45 -17
-45 -26 0 -5 11 -9 24 -9 25 0 51 -22 39 -33 -3 -4 3 -7 15 -7 26 0 29 -15 6
-24 -24 -9 -62 -7 -69 3 -3 5 3 12 12 15 10 3 -11 3 -47 -1 -36 -3 -85 -7
-110 -9 -145 -8 -214 -15 -219 -23 -3 -4 -16 -11 -29 -15 -12 -4 -22 -11 -22
-16 0 -9 -101 -60 -118 -60 -4 0 -23 -12 -41 -28 -29 -24 -34 -35 -41 -97 -18
-138 -23 -161 -46 -212 -13 -28 -24 -57 -24 -62 0 -6 -5 -11 -11 -11 -7 0 -8
14 -4 40 7 42 -6 55 -23 23 -5 -9 -21 -17 -35 -19 -23 -2 -25 0 -22 27 2 17 7
44 10 60 5 21 3 29 -7 29 -14 -1 -69 -70 -89 -112 -7 -16 -16 -28 -20 -28 -4
0 -22 -21 -40 -47 -18 -25 -40 -56 -51 -67 -10 -12 -25 -29 -33 -38 -18 -21
-65 -24 -65 -4 0 7 7 19 15 26 19 16 19 30 0 30 -8 0 -15 -6 -15 -13 0 -6 -16
-27 -35 -44 -19 -18 -35 -38 -35 -44 0 -6 -14 -27 -31 -47 l-32 -36 23 -8 c14
-5 28 -4 36 3 11 9 14 8 14 -5 0 -29 53 -20 78 14 12 16 22 34 22 40 0 5 4 10
9 10 5 0 19 16 31 34 11 19 30 38 41 41 11 4 31 24 45 46 25 40 64 54 64 24 0
-26 -60 -146 -75 -152 -8 -3 -15 -11 -15 -19 0 -8 -4 -14 -9 -14 -5 0 -8 -8
-7 -17 1 -12 -7 -19 -24 -21 -14 -2 -40 -10 -57 -18 -32 -14 -66 -11 -131 13
-14 6 -15 4 -4 -9 11 -14 9 -19 -10 -32 -12 -9 -32 -16 -44 -16 -27 0 -50 -25
-33 -36 7 -4 27 -7 45 -6 46 2 52 -23 11 -44 -18 -10 -37 -24 -43 -32 -14 -19
-77 -23 -69 -4 18 45 19 43 -11 30 -16 -6 -33 -15 -38 -20 -6 -4 -17 -8 -25
-8 -9 0 -27 -12 -40 -25 -28 -30 -51 -32 -51 -5 0 11 4 20 10 20 5 0 26 25 46
55 20 30 42 55 49 55 7 0 15 10 19 22 4 18 8 20 18 10 19 -19 41 -14 72 18 16
17 34 30 39 30 6 0 2 9 -8 20 -16 18 -16 20 -1 35 9 9 16 21 16 26 0 5 9 23
21 38 17 23 21 46 24 117 l2 89 -95 165 c-52 91 -121 210 -152 265 -31 55 -92
160 -136 233 -43 73 -85 142 -91 155 -10 18 -13 -174 -13 -955z m1790 668 c0
-2 -7 -6 -15 -10 -8 -3 -15 -1 -15 4 0 6 7 10 15 10 8 0 15 -2 15 -4z m-393
-86 c-9 -24 -9 -33 1 -39 20 -12 5 -33 -51 -71 -29 -19 -54 -38 -57 -41 -3 -3
-15 -9 -27 -13 -27 -9 -29 3 -8 44 8 16 14 35 13 42 -2 6 6 14 17 16 11 2 28
13 38 23 24 25 39 24 35 -3 -2 -11 3 -23 11 -26 10 -3 12 3 6 26 -4 19 -1 38
7 51 19 31 28 25 15 -9z m328 11 c3 -6 -10 -17 -30 -27 -19 -9 -45 -29 -56
-45 -12 -18 -29 -29 -44 -29 -16 0 -25 -7 -29 -25 -5 -20 -13 -25 -36 -25 -19
0 -29 -5 -27 -12 1 -7 -5 -13 -13 -13 -8 0 -16 10 -18 22 -4 24 46 66 91 77
15 3 27 13 27 21 0 18 65 49 81 39 7 -4 9 -3 5 4 -5 9 6 16 36 21 4 0 9 -3 13
-8z m355 -73 c0 -16 -3 -19 -11 -11 -6 6 -8 16 -5 22 11 17 16 13 16 -11z
m430 -29 c0 -6 -4 -7 -10 -4 -5 3 -10 11 -10 16 0 6 5 7 10 4 6 -3 10 -11 10
-16z m-1410 -53 c0 -3 -4 -8 -10 -11 -5 -3 -10 -1 -10 4 0 6 5 11 10 11 6 0
10 -2 10 -4z m350 -6 c0 -5 -5 -10 -11 -10 -5 0 -7 5 -4 10 3 6 8 10 11 10 2
0 4 -4 4 -10z m86 -45 c-3 -9 -20 -22 -36 -28 -17 -6 -30 -17 -30 -24 0 -8
-11 -18 -25 -23 -14 -5 -25 -14 -25 -20 0 -5 -4 -10 -10 -10 -5 0 -10 11 -10
25 0 35 58 95 92 95 16 0 28 5 28 12 0 9 3 9 11 1 7 -7 9 -19 5 -28z m784 -50
c0 -8 9 -15 20 -15 11 0 20 -4 20 -9 0 -6 10 -21 23 -34 12 -14 39 -43 59 -65
29 -32 46 -41 85 -46 87 -13 228 -66 276 -106 7 -5 32 -26 57 -46 49 -39 180
-183 180 -198 0 -5 17 -32 38 -60 50 -67 78 -129 87 -191 4 -27 19 -84 35
-125 15 -41 35 -111 44 -155 9 -44 23 -109 31 -145 13 -58 13 -96 0 -350 -18
-321 -30 -445 -52 -504 -9 -24 -16 -87 -18 -151 -5 -182 -37 -264 -117 -304
l-42 -21 -16 25 c-8 14 -18 25 -22 25 -11 0 -48 76 -41 83 3 4 -6 11 -21 16
-18 8 -26 18 -26 36 0 15 -9 31 -26 41 -20 14 -25 24 -22 46 4 25 2 27 -16 22
-17 -5 -18 -4 -9 6 9 10 5 25 -17 67 -33 61 -70 96 -94 87 -9 -3 -16 -1 -16 6
0 6 -10 10 -22 8 -13 -2 -23 -9 -23 -16 0 -8 -8 -19 -17 -26 -10 -7 -18 -19
-18 -26 0 -15 -76 -6 -97 11 -9 8 -17 6 -29 -6 -15 -15 -15 -19 1 -56 25 -53
23 -95 -3 -122 -19 -18 -32 -21 -83 -19 -43 2 -68 -1 -86 -13 -31 -21 -53 -13
-53 19 0 16 -15 40 -40 65 -22 22 -40 47 -40 56 0 8 -7 18 -15 21 -8 4 -15 12
-15 20 0 8 -6 14 -14 14 -8 0 -21 8 -28 18 -7 9 -22 17 -32 17 -11 0 -21 6
-23 13 -3 7 5 12 22 12 17 0 24 4 19 11 -4 7 4 20 17 30 21 16 22 18 6 24 -14
6 -17 19 -17 70 0 34 -7 79 -16 100 -17 41 -13 68 10 59 8 -3 17 0 21 5 3 6
10 9 15 6 4 -3 11 14 15 37 9 56 50 177 64 191 6 6 11 15 11 19 0 4 19 27 41
50 23 24 48 57 55 73 24 54 41 70 59 55 19 -16 19 -60 1 -105 -37 -87 -40
-224 -6 -260 11 -12 20 -26 20 -31 0 -19 65 -73 131 -108 79 -43 194 -73 214
-56 8 6 26 10 42 9 56 -4 80 2 111 27 25 21 30 30 21 40 -6 8 -21 14 -33 15
-20 0 -20 1 -2 8 14 5 16 10 8 15 -17 10 -15 46 5 68 17 19 72 24 101 9 9 -4
41 -11 69 -15 61 -8 61 -9 5 89 -37 64 -37 63 -107 142 -30 34 -42 54 -34 58
8 6 7 10 -2 16 -11 7 -12 12 -1 29 6 11 12 29 12 40 0 11 5 19 11 17 20 -4 34
29 22 55 -12 28 -113 63 -210 73 -35 4 -63 10 -63 14 0 7 -182 5 -251 -3 -35
-4 -38 -1 -70 51 -19 29 -44 67 -56 82 -13 16 -23 34 -23 41 0 7 -7 10 -15 6
-21 -8 -65 10 -65 27 0 21 -94 14 -98 -8 -5 -22 -26 -13 -30 13 -2 12 -10 22
-18 22 -8 0 -13 4 -10 9 6 10 -54 75 -79 84 -9 4 -14 3 -11 -2 3 -4 -6 -6 -19
-3 -32 6 -32 19 0 44 33 25 32 36 -2 31 -21 -3 -24 -2 -14 5 12 9 13 13 1 27
-15 18 -87 55 -107 55 -7 0 -13 5 -13 10 0 15 78 12 82 -2 4 -10 10 -10 33 0
40 18 24 26 -50 24 -54 -2 -65 1 -65 14 0 15 11 16 91 12 l90 -6 -3 26 c-2 20
-9 27 -28 27 -14 1 -36 2 -50 4 l-25 2 24 10 c23 9 23 11 8 26 -16 16 -15 18
3 38 12 13 18 29 14 38 -5 15 -9 15 -31 -3 -14 -11 -32 -20 -39 -20 -8 0 -14
-9 -14 -19 0 -27 -27 -34 -57 -14 -23 15 -27 15 -37 2 -6 -9 -17 -14 -23 -12
-8 3 -13 -4 -13 -16 0 -27 -20 -27 -27 -1 -6 22 -18 26 -28 9 -4 -6 -13 -8
-21 -5 -8 3 -22 -3 -31 -14 -10 -11 -23 -20 -30 -20 -20 0 -15 24 8 38 34 22
12 27 -25 7 -32 -17 -36 -18 -53 -3 -10 9 -34 19 -53 23 -62 12 -70 16 -70 36
0 10 4 19 9 19 4 0 7 10 6 23 -2 19 2 22 28 21 17 0 33 -7 36 -15 6 -20 28
-39 35 -31 4 4 15 -3 24 -15 12 -16 23 -21 39 -17 13 4 20 10 18 15 -3 4 -12
6 -19 3 -9 -4 -16 5 -21 25 -5 23 -11 30 -28 28 -13 -1 -23 4 -25 15 -4 22 40
118 55 118 7 0 10 6 8 13 -3 8 5 12 23 13 28 1 72 34 72 53 0 5 14 12 30 16
17 4 37 14 46 22 9 9 31 17 51 18 34 2 73 25 42 25 -7 0 -1 7 14 15 21 11 34
12 48 5 15 -8 23 -6 36 10 10 11 23 20 31 20 7 0 28 11 47 25 18 14 48 28 66
30 74 9 155 31 179 48 30 21 50 22 50 2z m-935 -45 c3 -5 -3 -10 -15 -10 -12
0 -18 5 -15 10 3 6 10 10 15 10 5 0 12 -4 15 -10z m-512 -177 c8 -7 -11 -33
-23 -33 -5 0 -6 9 -3 20 5 20 15 25 26 13z m-411 -131 c5 -19 -23 -62 -41 -62
-18 0 -23 21 -11 51 14 32 45 39 52 11z m398 -31 c0 -5 -13 -19 -30 -31 -35
-25 -39 -16 -8 17 22 24 38 30 38 14z m-250 -31 c0 -5 -5 -10 -11 -10 -5 0 -7
5 -4 10 3 6 8 10 11 10 2 0 4 -4 4 -10z m-25 -29 c-6 -5 -25 10 -25 20 0 5 6
4 14 -3 8 -7 12 -15 11 -17z m220 -20 c-3 -6 -11 -8 -17 -5 -6 4 -5 9 3 15 16
10 23 4 14 -10z m1111 -103 c-3 -7 -9 -21 -12 -30 -8 -23 -30 -23 -38 -1 -5
11 -1 22 10 30 23 17 47 17 40 1z m-209 -64 c-3 -3 -12 -4 -19 -1 -8 3 -5 6 6
6 11 1 17 -2 13 -5z m1493 -60 c0 -14 4 -23 9 -20 10 7 26 -52 17 -61 -13 -13
-36 9 -37 34 0 15 -2 38 -5 51 -2 12 1 22 6 22 6 0 10 -12 10 -26z m-3040 -60
c0 -8 -5 -12 -10 -9 -6 4 -8 11 -5 16 9 14 15 11 15 -7z m165 6 c7 -11 -20
-60 -33 -60 -4 0 -13 4 -21 9 -12 8 -13 14 -3 35 12 26 45 35 57 16z m1515
-10 c0 -5 8 -10 18 -10 14 0 15 -2 2 -10 -10 -6 -16 -6 -18 0 -2 6 -10 10 -18
10 -8 0 -14 5 -14 10 0 6 7 10 15 10 8 0 15 -4 15 -10z m-80 -56 c0 -14 -3
-14 -15 -4 -8 7 -15 14 -15 16 0 2 7 4 15 4 8 0 15 -7 15 -16z m103 -71 c-14
-38 -53 -58 -53 -29 0 19 27 46 45 46 10 0 12 -6 8 -17z m-1693 -243 c0 -5 -2
-10 -4 -10 -3 0 -8 5 -11 10 -3 6 -1 10 4 10 6 0 11 -4 11 -10z m-6 -26 c21
-8 10 -24 -16 -24 -14 0 -18 -5 -14 -15 4 -10 -1 -15 -14 -15 -18 0 -19 3 -8
23 11 18 27 36 35 37 1 0 8 -3 17 -6z m416 -158 c0 -3 -4 -8 -10 -11 -5 -3
-10 -1 -10 4 0 6 5 11 10 11 6 0 10 -2 10 -4z m2353 -257 c22 -12 57 -44 57
-53 0 -2 -18 4 -40 15 -21 10 -43 19 -48 19 -5 0 -15 7 -22 15 -10 13 -9 15 9
15 12 0 32 -5 44 -11z m-2753 -49 c0 -5 -4 -10 -10 -10 -5 0 -10 5 -10 10 0 6
5 10 10 10 6 0 10 -4 10 -10z m1278 -197 c4 -28 22 -30 22 -3 0 11 5 20 10 20
6 0 10 -9 10 -20 0 -14 6 -20 18 -18 9 2 17 -3 17 -11 0 -10 -21 -14 -82 -17
-46 -2 -86 -5 -90 -6 -5 -1 -25 2 -46 6 -41 9 -60 26 -28 26 12 0 21 4 21 10
0 5 11 12 25 16 14 3 25 10 25 16 0 5 21 8 48 6 40 -3 47 -6 50 -25z m2143
-60 c-12 -20 -14 -14 -5 12 4 9 9 14 11 11 3 -2 0 -13 -6 -23z m349 -497 c-6
-6 -10 -18 -10 -28 0 -10 -4 -18 -10 -18 -5 0 -10 9 -10 20 0 11 5 20 10 20 6
0 10 10 10 23 0 17 2 19 10 7 6 -9 6 -18 0 -24z m-1501 0 c10 -11 8 -19 -6
-35 -21 -25 -27 -26 -47 -5 -21 21 -20 29 7 42 30 14 33 14 46 -2z m1 -141
c40 -32 70 -76 70 -102 0 -24 -2 -25 -47 -20 -60 6 -111 19 -190 47 -53 19
-61 25 -53 40 5 9 35 25 67 34 32 10 63 19 68 21 24 7 62 -1 85 -20z m1377
-37 c-3 -8 -6 -5 -6 6 -1 11 2 17 5 13 3 -3 4 -12 1 -19z m-3027 -78 c0 -5 -5
-10 -11 -10 -5 0 -7 5 -4 10 3 6 8 10 11 10 2 0 4 -4 4 -10z m1223 -92 c40
-23 57 -41 57 -60 0 -10 5 -18 11 -18 5 0 8 4 5 8 -3 5 7 24 22 42 27 32 31
33 111 36 71 3 84 0 99 -17 20 -23 35 -24 66 -4 22 15 24 14 40 -9 21 -33 20
-53 -4 -66 -11 -6 -20 -16 -20 -23 0 -23 -36 -45 -64 -40 -21 4 -25 10 -21 24
4 13 1 19 -8 19 -16 0 -29 -47 -16 -56 5 -3 18 -2 29 1 13 4 20 2 20 -7 0 -8
6 -26 12 -40 12 -24 16 -26 63 -21 27 3 54 12 58 19 12 21 47 17 47 -5 0 -11
5 -21 11 -23 28 -9 -30 -171 -80 -225 -28 -30 -14 -73 24 -73 15 0 33 -7 42
-16 14 -14 14 -22 -1 -87 -10 -40 -20 -83 -23 -97 -2 -14 -17 -33 -31 -43 -57
-36 -98 -66 -121 -87 -12 -12 -25 -19 -28 -16 -3 3 -14 1 -23 -4 -13 -7 -21
-5 -30 5 -7 9 -22 12 -38 9 -19 -3 -51 7 -107 37 -44 23 -90 47 -102 53 -24
11 -32 38 -11 34 6 -2 14 5 16 15 3 14 -1 18 -17 15 -36 -6 -24 36 20 71 22
17 51 26 97 32 169 20 206 29 228 56 20 25 53 25 38 1 -4 -6 -2 -8 3 -5 6 4 8
18 5 32 -2 14 1 32 7 39 10 11 9 24 0 55 -11 38 -10 43 11 66 12 13 33 25 47
27 24 3 63 51 51 63 -10 10 -76 -27 -81 -46 -7 -27 -104 -16 -132 16 -11 12
-30 28 -42 34 -31 16 -29 31 3 31 29 0 64 16 64 30 0 5 -9 18 -21 28 -16 15
-30 18 -67 14 -46 -5 -47 -4 -29 15 9 11 17 24 17 30 0 27 -97 39 -123 15 -11
-10 -21 -12 -25 -7 -4 6 -11 10 -17 10 -22 1 -65 29 -65 42 0 8 -12 13 -30 13
-38 0 -39 21 -4 49 31 25 28 24 57 9z m380 -193 c-3 -9 -8 -14 -10 -11 -3 3
-2 9 2 15 9 16 15 13 8 -4z m-1508 -54 c3 -5 1 -12 -5 -16 -5 -3 -10 1 -10 9
0 18 6 21 15 7z m1268 -21 c20 -18 -13 -18 -49 1 l-39 20 40 -6 c22 -4 44 -10
48 -15z m47 0 c0 -5 -4 -10 -10 -10 -5 0 -10 5 -10 10 0 6 5 10 10 10 6 0 10
-4 10 -10z m-1219 -73 c-1 -12 -15 -9 -19 4 -3 6 1 10 8 8 6 -3 11 -8 11 -12z
m3639 -157 c0 -5 -4 -10 -10 -10 -5 0 -10 5 -10 10 0 6 5 10 10 10 6 0 10 -4
10 -10z m330 -30 c0 -13 -11 -13 -30 0 -12 8 -11 10 8 10 12 0 22 -4 22 -10z
m-70 -380 c0 -5 -2 -10 -4 -10 -3 0 -8 5 -11 10 -3 6 -1 10 4 10 6 0 11 -4 11
-10z m-2260 -105 c0 -8 -14 -27 -32 -42 -69 -61 -202 -209 -242 -269 -16 -25
-30 -43 -32 -41 -2 2 13 36 32 77 58 118 118 190 225 265 40 28 49 30 49 10z
m1130 -6 c0 -9 -72 -55 -82 -52 -4 2 -5 -4 -2 -12 8 -19 -31 -20 -64 -1 -23
12 -23 13 26 34 28 12 53 25 56 30 6 10 66 11 66 1z m328 -53 c23 -10 42 -22
42 -27 0 -5 -22 2 -50 16 -27 14 -50 28 -50 31 0 3 3 4 8 2 4 -2 26 -12 50
-22z m-433 -132 c-12 -24 -15 -25 -15 -8 0 11 5 25 12 32 18 18 20 8 3 -24z
m-3175 -13 c0 -11 -39 -25 -47 -18 -3 3 -2 10 2 16 8 13 45 15 45 2z m3190
-56 c7 -9 13 -32 12 -53 -1 -20 3 -54 9 -75 9 -36 20 -183 23 -327 2 -86 -21
-198 -47 -234 -13 -17 -15 -12 -31 49 -10 42 -13 71 -7 79 5 6 12 43 16 83 5
57 4 79 -9 104 -18 36 -21 65 -7 73 13 8 1 99 -14 112 -24 19 -24 94 0 94 8 0
16 10 17 23 1 12 3 31 4 42 1 11 2 26 3 33 1 17 16 15 31 -3z m-2452 -128 c21
-22 21 -25 7 -54 -14 -29 -18 -30 -52 -22 -57 12 -72 45 -40 87 15 20 62 14
85 -11z m1102 11 c0 -19 -18 -43 -25 -36 -4 3 -2 16 5 27 12 24 20 27 20 9z
m-1622 -23 c-3 -14 1 -30 8 -36 28 -23 16 -45 -26 -46 -22 -1 -42 3 -46 8 -3
5 -14 7 -25 4 -14 -5 -19 -2 -19 12 1 35 54 82 94 83 14 0 17 -5 14 -25z
m2596 -2 c-11 -49 -17 -68 -23 -73 -3 -3 -22 -27 -41 -55 -19 -27 -47 -63 -63
-79 -16 -16 -41 -47 -55 -69 -15 -22 -35 -52 -44 -66 -10 -14 -23 -37 -30 -51
-19 -38 -34 -50 -62 -50 -16 0 -26 -6 -26 -15 0 -8 -7 -15 -15 -15 -9 0 -15 9
-15 25 0 15 6 25 15 25 11 0 12 5 5 26 -14 37 -12 64 5 64 10 0 15 11 15 35 0
24 5 35 15 35 18 0 19 12 4 27 -7 7 -2 13 18 20 18 7 33 22 42 44 13 34 52 69
104 91 15 7 27 18 27 25 0 7 20 22 45 34 25 12 45 27 45 35 0 8 9 14 20 14 17
0 19 -5 14 -27z m1067 -38 c0 -13 -38 -19 -59 -9 -13 6 -11 9 13 14 36 9 47 8
46 -5z m59 -24 c-6 -12 -15 -19 -21 -16 -15 10 -10 33 9 37 24 6 25 3 12 -21z
m-824 -88 c-3 -31 -10 -61 -16 -67 -5 -5 -11 -28 -12 -50 l-1 -41 -4 40 c-3
22 -9 45 -14 51 -7 8 -1 31 17 68 14 31 28 56 31 56 3 0 2 -25 -1 -57z m-556
15 c0 -14 -40 -48 -56 -48 -9 0 -18 9 -21 20 -4 16 -9 18 -24 9 -15 -7 -19 -6
-19 5 0 8 12 16 28 18 43 6 92 4 92 -4z m290 -2 c0 -3 -4 -8 -10 -11 -5 -3
-10 -1 -10 4 0 6 5 11 10 11 6 0 10 -2 10 -4z m-1060 -30 c0 -8 -4 -18 -10
-21 -5 -3 -10 3 -10 14 0 12 5 21 10 21 6 0 10 -6 10 -14z m648 -69 c16 -13
15 -24 -4 -31 -9 -3 -12 -2 -9 4 4 6 -7 15 -24 21 -17 6 -29 15 -26 19 6 9 44
2 63 -13z m347 3 c3 -5 2 -10 -4 -10 -5 0 -13 5 -16 10 -3 6 -2 10 4 10 5 0
13 -4 16 -10z m-9 -32 c-3 -7 -9 -21 -12 -30 -4 -10 -10 -18 -15 -18 -5 0 -9
-7 -9 -15 0 -8 -4 -15 -10 -15 -5 0 -10 -6 -10 -14 0 -20 -19 -31 -33 -17 -7
7 -6 12 6 17 9 3 17 12 17 20 0 8 5 14 10 14 6 0 10 7 10 15 0 9 6 18 14 21 8
3 12 12 9 20 -3 9 1 14 12 14 10 0 14 -5 11 -12z m-76 -138 c0 -5 -6 -13 -12
-17 -13 -8 -29 -33 -56 -85 -7 -16 -18 -28 -23 -28 -5 0 -9 -7 -9 -15 0 -8 -9
-19 -20 -25 -23 -13 -26 -5 -5 16 8 8 12 21 9 29 -4 8 -1 15 5 15 6 0 16 11
21 25 5 14 15 25 21 25 6 0 9 6 6 14 -3 8 1 17 9 20 9 3 13 10 10 15 -4 5 0
12 6 14 21 9 38 8 38 -3z m1525 -150 c3 -5 -3 -10 -14 -10 -12 0 -21 5 -21 10
0 6 6 10 14 10 8 0 18 -4 21 -10z m-4185 -146 c0 -8 -4 -12 -10 -9 -5 3 -10
10 -10 16 0 5 5 9 10 9 6 0 10 -7 10 -16z m1042 -55 c-18 -16 -37 -27 -42 -24
-6 4 -10 0 -10 -7 0 -19 -78 -48 -125 -47 -39 1 -100 15 -80 19 6 1 1 5 -10
10 -21 9 -13 11 59 14 11 1 22 10 26 21 7 18 8 19 15 3 9 -22 25 -24 25 -3 0
13 3 13 20 3 16 -10 24 -10 40 0 12 7 25 10 29 7 5 -3 11 1 14 9 5 13 25 20
62 24 6 1 -5 -12 -23 -29z m978 13 c0 -13 -12 -22 -22 -16 -10 6 -1 24 13 24
5 0 9 -4 9 -8z m-2103 -28 c-3 -3 -12 -4 -19 -1 -8 3 -5 6 6 6 11 1 17 -2 13
-5z"/>
<path d="M1578 4483 c7 -3 16 -2 19 1 4 3 -2 6 -13 5 -11 0 -14 -3 -6 -6z"/>
<path d="M2017 4274 c-8 -8 1 -24 14 -24 5 0 9 7 9 15 0 15 -12 20 -23 9z"/>
<path d="M2005 1631 c-3 -5 -1 -12 5 -16 5 -3 10 1 10 9 0 18 -6 21 -15 7z"/>
<path d="M1340 90 c0 -5 5 -10 10 -10 6 0 10 5 10 10 0 6 -4 10 -10 10 -5 0
-10 -4 -10 -10z"/>
<path d="M5390 5606 c-36 -12 -89 -37 -118 -54 -29 -18 -58 -32 -64 -32 -7 0
-3 -7 8 -15 19 -14 19 -15 -3 -21 -13 -4 -20 -11 -16 -20 3 -8 -1 -14 -11 -14
-9 0 -16 -5 -16 -11 0 -6 7 -9 14 -6 9 4 13 1 10 -6 -2 -7 13 -20 36 -30 31
-13 68 -17 158 -17 65 0 121 2 124 5 4 4 -11 125 -26 205 -2 14 -5 28 -5 33
-1 11 -20 8 -91 -17z"/>
<path d="M1780 5429 c0 -5 5 -7 10 -4 6 3 10 8 10 11 0 2 -4 4 -10 4 -5 0 -10
-5 -10 -11z"/>
<path d="M6156 5349 c-16 -4 -40 -6 -55 -3 -14 3 -39 1 -55 -6 l-29 -11 7
-117 c4 -64 13 -139 21 -167 12 -42 17 -100 15 -165 0 -25 27 -192 40 -239 6
-23 9 -49 6 -56 -2 -7 2 -44 10 -81 31 -150 34 -167 34 -211 0 -25 6 -87 14
-137 8 -50 22 -154 31 -231 22 -187 53 -392 67 -435 12 -39 33 -59 61 -60 10
0 15 -4 12 -10 -9 -15 27 -12 48 4 16 12 17 46 17 448 0 366 -2 441 -15 472
-14 33 -13 40 8 37 4 0 7 217 7 483 0 472 -1 485 -20 491 -10 3 -37 1 -59 -5
-22 -6 -52 -8 -66 -5 -57 12 -71 12 -99 4z"/>
<path d="M2730 5339 c0 -24 37 -41 61 -28 26 13 15 26 -29 35 -24 5 -32 3 -32
-7z"/>
<path d="M5566 5321 c-5 -8 10 -173 19 -202 3 -8 12 -64 20 -125 7 -60 19
-140 24 -179 30 -202 51 -368 48 -372 -5 -5 -33 143 -47 247 -5 41 -12 86 -15
100 -3 14 -10 54 -14 90 -14 98 -41 260 -52 307 -5 23 -9 57 -9 76 0 59 -12
62 -182 49 -83 -6 -156 -16 -162 -22 -7 -7 -6 -10 2 -10 7 0 12 -9 12 -21 0
-11 -4 -17 -10 -14 -5 3 -10 -1 -10 -9 0 -8 -11 -25 -24 -38 -13 -13 -26 -32
-28 -43 -2 -11 -14 -25 -26 -31 -14 -7 -19 -14 -13 -18 15 -10 2 -34 -22 -42
-30 -9 -67 -44 -67 -63 0 -16 -10 -22 -92 -56 -21 -8 -38 -21 -38 -29 0 -15
-37 -29 -45 -16 -3 5 1 10 7 13 7 2 -10 3 -39 2 -28 -1 -58 -6 -65 -12 -7 -6
-23 -14 -35 -17 -25 -8 -40 -72 -29 -131 11 -55 -2 -41 -19 23 -26 90 -45 122
-71 116 -12 -3 -25 -1 -28 5 -4 6 -19 11 -33 11 -21 0 -23 -3 -14 -14 11 -13
6 -15 -28 -14 -45 0 -53 13 -18 28 17 8 11 9 -22 4 -39 -6 -42 -4 -37 13 5 15
0 18 -27 18 -33 0 -38 10 -21 49 6 17 4 18 -17 12 -13 -4 -35 -10 -49 -12 -23
-5 -24 -4 -7 9 19 16 23 37 6 37 -8 0 -8 4 -1 13 15 18 -10 47 -41 47 -14 0
-32 9 -40 20 -13 18 -16 18 -73 4 -32 -8 -79 -20 -104 -26 -25 -5 -49 -14 -55
-19 -5 -5 -18 -9 -30 -9 -11 0 -31 -9 -45 -20 -14 -11 -34 -20 -45 -20 -23 0
-180 -53 -240 -80 -23 -10 -53 -22 -67 -25 -15 -4 -34 -15 -44 -26 -15 -17
-16 -24 -4 -62 8 -23 31 -60 52 -81 21 -22 38 -44 38 -51 0 -6 11 -22 25 -35
14 -13 25 -33 25 -46 0 -12 9 -32 21 -45 19 -23 20 -23 10 -2 -14 27 -14 33
-1 33 6 0 14 -8 17 -17 4 -10 25 -42 47 -72 23 -29 47 -62 54 -72 10 -13 11
-23 3 -36 -9 -16 -10 -16 -11 5 0 13 -4 20 -10 17 -6 -4 -4 -17 5 -36 9 -16
13 -34 10 -38 -5 -9 8 -44 58 -152 13 -30 27 -62 31 -72 3 -10 10 -15 16 -12
6 4 10 -5 10 -19 0 -14 10 -36 23 -48 12 -13 27 -32 32 -43 6 -11 19 -21 29
-23 16 -3 18 0 12 19 -20 65 -21 63 46 87 97 34 115 28 120 -41 2 -42 5 -43
52 -23 24 10 37 24 45 49 11 32 17 37 62 46 86 19 122 14 170 -21 24 -17 47
-35 50 -40 3 -5 23 -11 45 -12 51 -5 51 -5 36 -15 -18 -11 44 -50 93 -58 19
-3 38 -10 41 -14 3 -5 14 -9 26 -9 11 0 38 -14 60 -32 48 -38 69 -43 203 -47
53 -1 58 -3 42 -15 -14 -11 -15 -15 -4 -19 8 -3 20 -2 27 3 26 16 50 -1 50
-35 0 -31 2 -33 43 -38 96 -13 233 -35 247 -40 8 -3 28 -8 43 -11 15 -4 25
-11 22 -16 -4 -6 2 -13 12 -17 32 -11 102 -73 98 -86 -7 -18 7 -35 34 -38 14
-2 26 -10 29 -18 3 -9 0 -11 -8 -6 -10 6 -12 4 -7 -9 6 -15 3 -17 -18 -12 -15
4 -25 2 -25 -4 0 -6 5 -8 10 -5 6 3 14 -5 20 -19 5 -14 17 -26 25 -26 10 0 15
-7 13 -17 -2 -14 5 -19 32 -21 19 -2 41 -8 47 -14 7 -6 20 -8 28 -4 12 4 14
19 10 78 l-5 73 14 -45 c7 -25 19 -74 25 -110 8 -41 19 -71 31 -82 11 -9 20
-21 20 -27 0 -6 5 -11 11 -11 6 0 10 12 9 28 -5 68 7 80 41 40 11 -11 20 -16
20 -10 2 13 2 13 13 53 9 31 -15 275 -44 459 -6 36 -19 130 -30 210 -11 80
-24 172 -30 205 -6 33 -15 98 -20 144 -12 105 -57 430 -70 496 -5 28 -14 93
-20 145 -16 141 -31 233 -42 253 -6 12 -18 17 -36 15 -23 -3 -27 -8 -26 -33 1
-50 26 -256 40 -321 3 -18 2 -34 -4 -38 -11 -6 -17 16 -27 94 -14 110 -46 274
-56 286 -13 15 -55 19 -63 5z m156 -433 c-9 -9 -12 -7 -12 12 0 19 3 21 12 12
9 -9 9 -15 0 -24z m12 -55 c16 -110 18 -133 8 -133 -5 0 -13 30 -16 68 -4 37
-10 75 -12 85 -3 9 -1 17 4 17 6 0 13 -17 16 -37z m31 -258 c5 -76 -10 -22
-19 64 -4 45 -3 50 4 26 6 -16 12 -57 15 -90z m12 -87 c-3 -8 -6 -5 -6 6 -1
11 2 17 5 13 3 -3 4 -12 1 -19z m24 -108 c10 -44 3 -72 -12 -49 -10 15 -12
106 -3 96 3 -3 10 -24 15 -47z m-88 -119 c3 -51 4 -91 1 -88 -8 8 -25 116 -30
187 -3 63 -3 64 10 30 7 -19 16 -77 19 -129z m24 -203 c-3 -8 -6 -5 -6 6 -1
11 2 17 5 13 3 -3 4 -12 1 -19z m43 -246 c0 -15 4 -43 9 -62 17 -64 23 -146
11 -134 -13 13 -40 235 -28 228 4 -3 8 -17 8 -32z m150 -359 c0 -28 -3 -34
-10 -23 -13 20 -13 60 0 60 6 0 10 -17 10 -37z"/>
<path d="M5786 5321 c-3 -5 1 -60 9 -122 8 -63 17 -132 20 -154 30 -242 50
-397 70 -535 22 -153 33 -234 55 -430 5 -41 22 -165 39 -275 61 -406 67 -430
97 -418 13 5 14 25 9 137 -3 72 -8 145 -11 161 -9 53 -34 241 -40 300 -3 31
-17 125 -35 235 -6 36 -14 79 -19 95 -5 17 -11 81 -13 143 -3 62 -10 119 -16
126 -6 7 -8 16 -5 19 3 3 1 36 -5 74 -6 37 -14 88 -17 113 -2 25 -6 59 -8 75
-8 64 -26 222 -30 265 -12 124 -20 160 -38 180 -19 21 -53 27 -62 11z"/>
<path d="M5929 5303 c-1 -10 -1 -21 0 -25 0 -4 4 -51 7 -105 3 -54 10 -99 14
-101 4 -2 6 -30 3 -62 -6 -62 13 -180 28 -180 5 0 9 -10 9 -22 0 -19 -2 -20
-11 -8 -8 11 -9 6 -5 -20 3 -19 13 -100 21 -180 19 -184 25 -220 36 -220 5 0
9 6 9 13 0 25 20 -18 20 -45 0 -20 -4 -26 -15 -22 -19 8 -19 -21 -1 -163 8
-59 22 -173 31 -253 8 -80 20 -167 25 -195 4 -27 14 -88 20 -135 6 -47 13 -96
16 -109 8 -37 18 -15 15 34 -2 40 -1 43 19 38 20 -5 20 -4 14 93 -4 55 -11
107 -15 116 -5 9 -14 61 -20 115 -26 248 -47 391 -65 451 -9 29 -14 59 -11 66
3 8 0 58 -8 113 -13 95 -42 307 -50 368 -2 17 -4 30 -5 30 -1 0 -4 14 -6 30
-4 37 -32 237 -46 328 -9 62 -26 91 -29 50z"/>
<path d="M2440 5244 c0 -9 5 -14 12 -12 18 6 21 28 4 28 -9 0 -16 -7 -16 -16z"/>
<path d="M4307 5104 c-3 -3 -3 -14 0 -24 4 -17 7 -17 19 -5 8 7 14 16 14 18 0
7 -27 16 -33 11z"/>
<path d="M663 4872 c-42 -89 -40 -114 6 -71 16 16 19 24 11 34 -6 7 -7 15 -3
17 4 1 16 18 25 36 16 30 16 32 0 32 -10 0 -26 -19 -39 -48z"/>
<path d="M3540 4496 c0 -8 4 -17 9 -20 11 -7 33 18 24 27 -12 12 -33 7 -33 -7z"/>
<path d="M3655 4320 c3 -5 8 -10 11 -10 2 0 4 5 4 10 0 6 -5 10 -11 10 -5 0
-7 -4 -4 -10z"/>
<path d="M4365 3869 c-22 -4 -53 -6 -68 -3 -20 4 -32 1 -42 -13 -14 -17 -14
-17 -15 1 0 13 -3 16 -12 9 -7 -6 -35 -13 -63 -16 -27 -3 -51 -10 -53 -17 -3
-7 -13 -19 -23 -28 -13 -11 -15 -20 -9 -33 19 -35 60 -173 60 -202 0 -66 27
-106 65 -97 6 1 44 1 85 -1 41 -2 100 -2 131 -1 45 2 59 -1 74 -18 12 -13 31
-20 54 -20 36 -1 113 -42 170 -92 14 -13 37 -30 51 -39 14 -9 45 -35 70 -58
30 -27 54 -41 73 -41 15 0 27 -5 27 -11 0 -6 6 -9 13 -6 6 2 21 1 32 -3 11 -4
54 -2 95 5 57 11 83 11 108 2 17 -6 32 -14 32 -18 0 -18 125 -46 135 -30 3 6
-10 17 -30 25 -19 8 -35 17 -35 20 0 3 11 15 25 28 22 21 23 26 14 68 -6 25
-14 49 -20 54 -5 6 -9 21 -9 35 -1 51 -61 88 -135 83 -10 0 -24 3 -30 7 -5 5
-22 11 -37 15 -15 3 -29 14 -32 24 -4 10 -25 23 -51 31 -25 7 -52 22 -59 33
-10 14 -20 17 -40 12 -15 -3 -32 -1 -41 6 -8 6 -23 9 -36 5 -15 -5 -19 -4 -14
5 5 8 -3 11 -28 9 -25 -2 -44 4 -71 24 -51 40 -50 43 31 72 8 3 3 14 -15 33
-26 27 -58 38 -166 56 -29 5 -48 16 -28 16 7 0 12 6 12 13 0 6 -28 21 -63 33
-34 11 -69 23 -77 26 -8 3 -33 2 -55 -3z"/>
<path d="M5800 3360 c0 -19 5 -30 14 -30 18 0 27 35 13 49 -18 18 -27 12 -27
-19z"/>
<path d="M5800 3289 c0 -5 5 -7 10 -4 6 3 10 8 10 11 0 2 -4 4 -10 4 -5 0 -10
-5 -10 -11z"/>
<path d="M5803 3245 c7 -13 14 -20 15 -14 5 14 -6 39 -17 39 -5 0 -4 -11 2
-25z"/>
<path d="M5397 3180 c-19 -32 -14 -42 17 -31 11 5 24 9 29 10 8 1 8 6 1 25
-10 26 -31 25 -47 -4z"/>
<path d="M4142 3100 c-21 -19 -21 -23 -7 -50 8 -16 19 -32 25 -35 19 -12 11
-26 -8 -16 -17 9 -19 5 -19 -58 0 -37 -4 -74 -8 -82 -17 -26 -33 -152 -24
-183 13 -45 11 -66 -6 -66 -13 0 -21 -33 -17 -71 3 -26 14 -118 16 -134 4 -25
20 -24 111 8 73 25 134 57 179 93 58 48 37 145 -35 164 -42 12 -47 21 -24 40
8 7 15 27 15 45 0 29 45 102 66 108 4 1 18 11 29 21 19 17 21 25 14 69 -10 61
-30 93 -65 101 -14 4 -46 16 -70 28 -26 12 -53 18 -67 14 -14 -3 -32 1 -43 9
-26 19 -36 19 -62 -5z"/>
<path d="M3955 3083 c4 -10 11 -30 15 -44 4 -14 13 -36 20 -48 18 -35 40 -128
40 -171 0 -38 13 -54 22 -27 10 25 -17 237 -31 247 -4 3 -11 17 -15 33 -5 21
-12 27 -32 27 -21 0 -25 -4 -19 -17z"/>
<path d="M5340 3065 c-11 -13 -9 -21 8 -45 21 -28 54 -110 51 -127 -1 -4 0
-12 1 -18 2 -5 4 -32 5 -60 1 -27 11 -75 21 -105 14 -42 18 -88 19 -195 1 -77
2 -154 3 -171 2 -31 31 -74 50 -74 5 0 13 -10 16 -22 11 -42 21 -51 44 -39 11
6 22 21 25 33 4 13 16 34 28 47 23 24 50 138 42 171 -3 10 0 21 6 24 11 7 7
43 -9 81 -23 54 -30 88 -20 100 7 9 0 30 -25 71 -24 39 -35 69 -33 88 2 23 -9
41 -67 101 -38 40 -78 75 -88 78 -13 5 -16 13 -11 31 4 18 1 27 -14 35 -28 15
-37 14 -52 -4z"/>
<path d="M4800 2911 c0 -5 -20 -6 -44 -4 -39 5 -46 3 -56 -18 -7 -13 -19 -28
-26 -32 -15 -8 -19 -53 -6 -59 4 -2 17 -15 30 -29 24 -27 21 -59 -4 -59 -22 0
-54 -60 -54 -101 0 -19 9 -55 21 -80 37 -77 87 -118 166 -134 17 -3 34 -13 37
-21 3 -8 15 -14 26 -14 22 0 27 16 8 23 -7 2 14 7 47 10 68 8 211 0 235 -13 9
-5 22 -5 30 0 12 7 9 14 -15 34 -15 13 -47 34 -70 46 -23 12 -53 31 -66 43
-29 26 -73 47 -99 47 -11 0 -20 7 -20 15 0 8 5 15 10 15 6 0 10 -5 10 -11 0
-8 4 -9 13 0 8 6 16 9 18 7 2 -2 16 -6 32 -10 20 -5 27 -3 27 9 0 8 -5 15 -11
15 -6 0 -22 8 -35 19 -23 18 -23 19 -4 24 14 3 18 10 14 22 -4 10 1 23 14 35
21 20 100 45 110 36 3 -3 -1 -7 -9 -7 -8 -1 9 -5 36 -9 51 -7 95 2 95 20 0 16
-111 100 -170 127 -30 14 -57 29 -60 33 -12 18 -79 27 -129 17 -37 -7 -59 -7
-76 1 -14 7 -25 8 -25 3z"/>
<path d="M6045 2724 c-3 -19 -3 -39 0 -44 3 -6 2 -10 -4 -10 -10 0 -27 39 -23
54 2 5 -4 6 -13 3 -8 -4 -15 -2 -15 2 0 5 -7 12 -16 15 -15 6 -16 -2 -9 -71 4
-48 3 -74 -2 -68 -13 14 -33 86 -33 119 0 16 -5 26 -15 26 -8 0 -15 -4 -15
-10 0 -5 5 -10 10 -10 6 0 10 -5 10 -11 0 -5 -4 -8 -9 -5 -5 3 -3 -15 5 -42
14 -45 14 -48 -7 -65 -16 -13 -25 -15 -35 -6 -8 6 -14 10 -15 8 0 -2 -2 -11
-4 -19 -27 -99 -32 -135 -28 -205 2 -44 4 -88 4 -98 0 -10 -11 -27 -24 -38
-35 -26 -26 -63 12 -54 34 9 34 10 23 32 -6 11 -7 25 -3 32 7 10 18 7 50 -13
l42 -27 40 23 c22 12 38 27 35 34 -7 19 6 25 18 8 11 -14 15 -14 46 0 19 8 47
17 61 20 15 3 29 11 32 18 2 7 -4 58 -15 113 -10 55 -22 129 -27 165 -14 107
-30 156 -51 157 -13 1 -20 -8 -25 -33z m10 -133 c3 -5 1 -12 -5 -16 -5 -3 -10
1 -10 9 0 18 6 21 15 7z m-76 -63 l-1 -43 -8 35 c-8 32 -6 50 6 50 2 0 4 -19
3 -42z m11 -74 c0 -14 4 -33 9 -43 6 -9 6 -23 1 -31 -6 -9 -10 -2 -15 26 -3
21 -8 47 -10 57 -2 9 1 17 6 17 5 0 9 -12 9 -26z m17 -131 c-3 -10 -5 -4 -5
12 0 17 2 24 5 18 2 -7 2 -21 0 -30z"/>
<path d="M6155 2608 c7 -111 28 -264 37 -273 4 -4 62 14 139 44 25 9 26 12 18
56 -5 25 -11 65 -13 88 -9 75 -21 120 -34 125 -6 2 -12 -1 -12 -7 0 -6 -4 -11
-10 -11 -5 0 -10 12 -10 28 0 15 -8 36 -17 47 -15 20 -15 20 -10 -2 7 -32 -10
-39 -36 -16 -12 11 -30 23 -41 27 -17 6 -18 1 -11 -106z"/>
<path d="M6364 2583 c4 -125 13 -183 28 -183 5 0 7 64 6 147 -3 130 -5 148
-20 151 -16 3 -17 -7 -14 -115z"/>
<path d="M5890 2640 c0 -5 7 -10 16 -10 8 0 12 5 9 10 -3 6 -10 10 -16 10 -5
0 -9 -4 -9 -10z"/>
<path d="M4940 2335 c33 -19 45 -19 26 0 -8 8 -23 15 -33 15 -14 -1 -13 -4 7
-15z"/>
<path d="M6280 2280 l-75 -30 1 -40 c1 -22 7 -47 14 -55 12 -14 5 -55 -9 -55
-19 0 -30 29 -29 72 0 25 -3 51 -6 57 -10 16 -46 -5 -46 -27 0 -10 -5 -23 -11
-29 -8 -8 -8 -17 1 -34 19 -37 137 -149 157 -149 10 0 29 -9 43 -20 20 -15 23
-21 13 -31 -21 -21 -15 -65 12 -90 46 -42 49 -56 20 -83 -24 -22 -25 -28 -16
-63 5 -21 13 -64 16 -95 4 -32 13 -63 21 -69 12 -10 14 40 14 329 0 216 -4
343 -10 347 -5 3 -10 16 -10 28 0 18 2 19 10 7 8 -13 10 -12 10 2 0 17 -29 58
-40 58 -3 -1 -39 -14 -80 -30z"/>
<path d="M5974 2170 c-12 -5 -24 -16 -28 -25 -4 -12 -13 -15 -34 -10 -21 4
-35 0 -53 -14 -20 -17 -21 -20 -6 -21 12 0 17 -8 17 -32 0 -43 8 -54 53 -73
20 -8 37 -19 37 -24 0 -11 -46 -31 -72 -31 -18 0 -20 -4 -14 -40 5 -33 3 -42
-13 -52 -10 -6 -17 -16 -15 -22 5 -15 -4 -26 -53 -65 -24 -18 -43 -28 -43 -22
0 6 -4 11 -10 11 -5 0 -10 -6 -10 -13 0 -8 -9 -22 -20 -32 -12 -11 -20 -13
-20 -6 0 7 -4 10 -9 6 -5 -3 -12 -1 -16 5 -3 5 -19 7 -34 4 -21 -4 -34 0 -47
14 -22 23 -49 29 -82 18 -19 -6 -21 -10 -11 -22 6 -8 27 -22 45 -30 43 -21 33
-38 -17 -30 -43 7 -47 2 -22 -26 16 -18 16 -21 1 -49 -11 -19 -13 -31 -6 -35
12 -8 30 16 24 31 -2 6 5 12 17 12 11 1 23 7 27 14 6 8 13 8 28 0 11 -6 29
-11 40 -11 11 0 22 -7 26 -15 3 -10 -1 -15 -14 -15 -11 0 -20 -8 -22 -21 -3
-24 -18 -35 -60 -44 -16 -3 -27 -11 -25 -18 3 -19 -49 -20 -89 -1 -37 18 -37
18 -53 -5 -21 -33 -62 -151 -55 -162 3 -5 12 -9 20 -9 8 0 14 -4 14 -10 0 -5
-16 -10 -35 -10 -34 0 -35 -1 -37 -42 0 -24 -1 -48 -1 -55 0 -6 -11 -14 -26
-18 -26 -6 -83 -60 -74 -69 3 -3 -11 -21 -31 -42 -19 -20 -33 -40 -31 -45 3
-4 19 -10 35 -14 49 -11 34 -25 -25 -25 -49 0 -55 -2 -55 -21 0 -50 15 -59
100 -59 43 0 91 -5 107 -11 15 -6 89 -15 163 -19 74 -5 167 -16 205 -24 l70
-15 50 32 c62 39 111 40 269 9 l109 -22 34 21 c19 12 37 19 40 15 3 -3 12 -1
19 5 10 8 22 8 42 1 16 -5 35 -7 41 -2 7 4 23 5 37 2 l24 -4 0 181 c-1 99 -5
181 -10 181 -9 0 -18 58 -33 213 -2 15 -11 35 -20 44 -15 16 -18 16 -35 0 -18
-16 -20 -16 -37 3 -15 16 -16 25 -7 44 7 15 8 44 3 80 -11 79 3 70 16 -11 8
-43 18 -72 30 -81 16 -11 19 -9 26 20 5 18 5 57 1 88 -4 30 -6 61 -5 68 1 8
-5 24 -13 37 -9 14 -16 38 -16 56 0 35 -28 89 -46 89 -9 0 -11 -17 -8 -57 l4
-58 -15 65 c-9 35 -20 69 -25 74 -6 6 -10 21 -10 34 0 27 -50 82 -74 82 -9 0
-16 5 -16 12 0 15 -42 78 -52 78 -5 0 -8 -14 -8 -32 0 -43 -16 -25 -27 31 -9
48 -17 54 -49 41z m86 -179 c0 -11 5 -23 10 -26 8 -5 7 -11 -1 -21 -17 -21
-30 -7 -27 32 2 36 18 48 18 15z m199 -259 c0 -24 -1 -25 -9 -7 -12 28 -12 47
0 40 6 -3 10 -18 9 -33z m-126 -166 c14 -20 14 -26 2 -42 -13 -19 -14 -19 -28
0 -14 19 -12 66 3 66 4 0 15 -11 23 -24z m85 -29 c2 -12 -3 -17 -17 -17 -15 0
-21 6 -21 21 0 25 33 22 38 -4z"/>
<path d="M4857 1933 c-4 -3 -7 -13 -7 -21 0 -12 3 -12 15 -2 8 7 15 16 15 21
0 11 -14 12 -23 2z"/>
<path d="M4880 1870 c0 -5 9 -10 20 -10 11 0 20 5 20 10 0 6 -9 10 -20 10 -11
0 -20 -4 -20 -10z"/>
<path d="M807 1845 c3 -14 11 -25 18 -25 18 0 13 44 -6 48 -13 2 -15 -3 -12
-23z"/>
<path d="M5006 1751 c-4 -7 -5 -15 -2 -18 9 -9 19 4 14 18 -4 11 -6 11 -12 0z"/>
<path d="M819 1665 c-1 -3 -2 -8 -3 -12 -1 -5 -4 -13 -8 -18 -9 -15 2 -95 14
-95 12 0 27 42 20 55 -3 5 -5 24 -3 42 1 19 -2 33 -8 33 -6 0 -12 -2 -12 -5z"/>
<path d="M6379 1488 c-3 -37 4 -105 12 -118 5 -10 9 11 9 58 0 41 -4 72 -10
72 -5 0 -10 -6 -11 -12z"/>
<path d="M790 1470 c0 -5 5 -10 10 -10 6 0 10 5 10 10 0 6 -4 10 -10 10 -5 0
-10 -4 -10 -10z"/>
<path d="M4880 1330 c0 -5 -13 -10 -30 -10 -16 0 -30 -4 -30 -9 0 -5 -9 -12
-19 -16 -11 -3 -23 -15 -26 -25 -3 -11 -12 -19 -18 -17 -7 1 -13 -11 -15 -28
-2 -25 -1 -27 8 -12 8 12 18 15 38 11 33 -8 53 -24 29 -24 -9 0 -17 -7 -17
-16 0 -8 4 -13 9 -10 5 3 12 -1 15 -10 8 -20 26 -8 26 17 0 12 7 19 19 19 15
0 18 8 18 43 0 23 4 54 8 70 5 18 4 27 -4 27 -6 0 -11 -4 -11 -10z"/>
<path d="M4843 1113 c9 -2 23 -2 30 0 6 3 -1 5 -18 5 -16 0 -22 -2 -12 -5z"/>
<path d="M4916 849 c-18 -17 -18 -20 -2 -44 21 -32 36 -24 36 20 0 42 -9 48
-34 24z"/>
<path d="M5122 853 c-29 -2 -50 -8 -47 -14 4 -5 -3 -9 -13 -9 -11 0 -25 -6
-31 -13 -6 -8 -25 -12 -43 -11 -23 3 -27 1 -13 -4 26 -9 65 -35 65 -43 0 -9
-41 -21 -64 -19 -17 2 -18 -4 -11 -66 10 -95 18 -110 62 -124 60 -19 97 -46
170 -121 74 -77 108 -96 198 -110 33 -5 76 -16 95 -23 19 -8 62 -19 95 -26 33
-7 110 -36 170 -65 61 -29 151 -72 200 -95 50 -23 111 -57 136 -76 l47 -34
131 0 131 0 0 345 c0 351 -2 372 -36 328 -13 -17 -13 -17 -14 2 0 25 10 40 33
48 23 8 22 29 -3 44 -25 16 -75 0 -67 -21 8 -21 -41 -49 -89 -51 -23 -1 -46
-5 -53 -9 -16 -10 -14 8 7 43 9 17 23 31 30 31 6 0 12 4 12 9 0 5 7 16 15 25
9 9 11 17 5 21 -5 3 -10 1 -10 -4 0 -6 -10 -11 -22 -11 -31 0 -91 -23 -101
-37 -4 -7 -15 -13 -23 -13 -8 0 -17 -7 -21 -16 -3 -8 -12 -13 -19 -10 -8 3
-13 2 -11 -2 5 -16 -42 -62 -62 -62 -35 0 -79 -28 -83 -52 -2 -18 -11 -24 -35
-26 -20 -2 -44 -15 -62 -33 -33 -32 -88 -42 -77 -13 3 9 6 18 6 20 0 2 8 4 19
4 12 0 20 9 24 28 4 19 17 34 43 48 50 26 100 74 96 91 -2 8 1 12 7 9 5 -4 13
-1 16 5 4 6 -2 13 -15 16 -18 5 -21 11 -16 38 11 55 -11 61 -86 26 -67 -32
-108 -55 -148 -84 -35 -24 -54 -23 -40 3 14 26 -6 35 -55 27 -25 -4 -35 -2
-35 7 0 8 -10 11 -30 8 -18 -3 -35 2 -45 12 -33 33 -227 67 -333 59z m825
-349 c-3 -3 -12 -4 -19 -1 -8 3 -5 6 6 6 11 1 17 -2 13 -5z"/>
<path d="M4707 813 c-11 -10 -8 -92 4 -114 16 -31 42 -59 55 -59 6 0 22 -9 35
-21 68 -60 155 -46 120 20 -6 11 -11 29 -11 40 0 22 -55 91 -72 91 -6 0 -17 8
-24 18 -13 16 -13 16 -14 -3 -1 -18 -2 -18 -13 -4 -22 29 -66 47 -80 32z"/>
<path d="M4605 710 c3 -5 8 -10 11 -10 2 0 4 5 4 10 0 6 -5 10 -11 10 -5 0 -7
-4 -4 -10z"/>
<path d="M4685 569 c-7 -10 58 -20 68 -10 5 5 -6 10 -28 13 -20 2 -38 1 -40
-3z"/>
</g>
</svg>
